#!OML:ASF H:\Pregnant\Project 1\Capture day 1\Session 1\femalepreg.ASF
:FULLY-SPECIFIED
:DEGREES
711
root 5.13092 1.55401 15.9493 -81.8534 5.9857 38.6419
lowerback -0.893899 3.35119 2.47993
upperback 0.793921 4.52339 -3.9867
thorax 1.83552 2.33313 -5.38132
lowerneck -32.8698 16.3364 19.2069
upperneck 26.8313 17.9596 -10.1159
head 18.1961 7.81633 -2.8612
rclavicle 6.36111e-015 -1.11319e-014
rhumerus -9.98361 24.4683 -44.5452
rradius 33.2049
rwrist 0.214999
rhand -13.9695 -23.6084
rfingers 7.12502
rthumb 12.1585 -53.2351
lclavicle 6.36111e-015 -1.11319e-014
lhumerus -56.4535 14.6132 54.3762
lradius 87.5006
lwrist 18.3547
lhand 8.5483 -6.65992
lfingers 7.12502
lthumb 33.7482 20.1794
rfemur -72.4558 -77.012 35.0934
rtibia 137.909
rfoot -24.1286 -25.0092
rtoes 33.4182
lfemur -58.0789 20.2925 -44.4324
ltibia 130.379
lfoot -3.10809 -14.4342
ltoes -34.0676
712
root 5.14295 1.54986 15.9477 -81.9776 6.08474 38.3946
lowerback -0.82876 3.27645 2.33636
upperback 0.87501 4.42806 -4.00197
thorax 1.86191 2.28584 -5.32128
lowerneck -32.9983 16.602 19.5064
upperneck 26.6938 18.2168 -10.2806
head 18.2568 7.90844 -2.89167
rclavicle -6.36111e-015 1.19271e-014
rhumerus -9.90776 24.9978 -44.5109
rradius 33.2025
rwrist 0.343725
rhand -12.8812 -23.4471
rfingers 7.12502
rthumb 13.2077 -53.0087
lclavicle -6.36111e-015 1.19271e-014
lhumerus -56.2261 15.088 54.0662
lradius 87.6163
lwrist 17.5279
lhand 8.14162 -7.10665
lfingers 7.12502
lthumb 33.3617 19.8165
rfemur -72.4105 -77.3946 34.8114
rtibia 137.973
rfoot -24.1083 -24.9181
rtoes 33.3395
lfemur -58.0349 20.3686 -44.4811
ltibia 130.338
lfoot -2.79153 -14.5318
ltoes -33.5748
713
root 5.15457 1.54584 15.9454 -82.1079 6.14574 38.1385
lowerback -0.791732 3.18969 2.22573
upperback 1.00844 4.31781 -4.02259
thorax 1.95982 2.23394 -5.28249
lowerneck -33.2788 16.9342 19.8848
upperneck 26.6128 18.5034 -10.4545
head 18.3954 8.00843 -2.92144
rclavicle -1.11319e-013 -7.15625e-015
rhumerus -9.75455 25.4639 -44.4899
rradius 33.1899
rwrist 0.556545
rhand -11.7159 -23.2648
rfingers 7.12502
rthumb 14.3307 -52.7502
lclavicle -1.11319e-013 -7.15625e-015
lhumerus -55.9355 15.7255 53.7392
lradius 87.8356
lwrist 17.0438
lhand 7.92762 -7.35429
lfingers 7.12502
lthumb 33.1582 19.6124
rfemur -72.3544 -77.7349 34.569
rtibia 138.024
rfoot -24.0658 -24.8115
rtoes 33.2361
lfemur -57.9837 20.4637 -44.4756
ltibia 130.308
lfoot -2.50693 -14.6381
ltoes -32.9811
714
root 5.16606 1.54213 15.9423 -82.2229 6.18337 37.8796
lowerback -0.746218 3.12176 2.13376
upperback 1.10835 4.2306 -4.00105
thorax 2.01922 2.19176 -5.21089
lowerneck -33.5102 17.1987 20.1234
upperneck 26.5375 18.7573 -10.5831
head 18.4978 8.09165 -2.92293
rclavicle -6.04305e-014 -2.06736e-014
rhumerus -9.65762 25.9818 -44.3868
rradius 33.1951
rwrist 0.824493
rhand -10.4828 -23.0568
rfingers 7.12502
rthumb 15.5187 -52.4541
lclavicle -6.04305e-014 -2.06736e-014
lhumerus -55.703 16.3346 53.4868
lradius 88.1262
lwrist 16.9762
lhand 7.87357 -7.38053
lfingers 7.12502
lthumb 33.1068 19.5971
rfemur -72.4165 -77.9857 34.4638
rtibia 138.073
rfoot -23.9892 -24.6821
rtoes 33.1433
lfemur -57.9472 20.5492 -44.4518
ltibia 130.283
lfoot -2.23402 -14.7404
ltoes -32.3978
715
root 5.17723 1.53865 15.9383 -82.331 6.19779 37.6166
lowerback -0.670966 3.07903 2.05716
upperback 1.15681 4.17416 -3.92388
thorax 2.00914 2.16223 -5.09197
lowerneck -33.5682 17.2751 19.9172
upperneck 26.8362 18.961 -10.6135
head 17.9432 8.11601 -2.80471
rclavicle 6.36111e-015 1.03368e-014
rhumerus -9.65641 26.5697 -44.1827
rradius 33.2289
rwrist 1.15509
rhand -9.25432 -22.8092
rfingers 7.12502
rthumb 16.7016 -52.1108
lclavicle 6.36111e-015 1.03368e-014
lhumerus -55.5459 16.8468 53.3366
lradius 88.4361
lwrist 17.3084
lhand 7.93857 -7.18573
lfingers 7.12502
lthumb 33.1686 19.7787
rfemur -72.5237 -78.1693 34.432
rtibia 138.111
rfoot -23.896 -24.5359
rtoes 33.0753
lfemur -57.9153 20.6345 -44.4018
ltibia 130.259
lfoot -1.96159 -14.8441
ltoes -31.8159
716
root 5.18851 1.53509 15.9341 -82.4262 6.21996 37.3538
lowerback -0.539676 3.06877 1.96963
upperback 1.10908 4.15717 -3.79035
thorax 1.86749 2.14755 -4.91294
lowerneck -33.4785 17.3832 20.0424
upperneck 26.2261 19.1086 -10.7315
head 18.4042 8.19157 -2.86821
rclavicle 6.67916e-014 9.93923e-015
rhumerus -9.80861 27.3326 -43.8637
rradius 33.297
rwrist 1.47465
rhand -8.01935 -22.5262
rfingers 7.12502
rthumb 17.8902 -51.7233
lclavicle 6.67916e-014 9.93923e-015
lhumerus -55.5189 17.1472 53.2977
lradius 88.7035
lwrist 18.0108
lhand 8.04192 -6.81044
lfingers 7.12502
lthumb 33.2669 20.1331
rfemur -72.743 -78.2984 34.5002
rtibia 138.153
rfoot -23.782 -24.3856
rtoes 33.0506
lfemur -57.9008 20.7004 -44.3726
ltibia 130.232
lfoot -1.68342 -14.9351
ltoes -31.2164
717
root 5.20004 1.53157 15.9296 -82.4883 6.2576 37.0931
lowerback -0.372328 3.09114 1.86374
upperback 0.956355 4.17995 -3.60813
thorax 1.59644 2.14818 -4.67755
lowerneck -33.0426 17.2608 19.7156
upperneck 25.9026 19.1785 -10.7646
head 18.1255 8.20716 -2.83346
rclavicle -3.18055e-014 4.6118e-014
rhumerus -10.1163 28.2708 -43.4481
rradius 33.3939
rwrist 1.76768
rhand -6.7576 -22.2059
rfingers 7.12502
rthumb 19.1039 -51.2876
lclavicle -3.18055e-014 4.6118e-014
lhumerus -55.6096 17.2025 53.3654
lradius 88.8687
lwrist 19.0126
lhand 8.12419 -6.32864
lfingers 7.12502
lthumb 33.3451 20.5981
rfemur -73.2572 -78.3661 34.8366
rtibia 138.217
rfoot -23.6354 -24.2339
rtoes 33.02
lfemur -57.9308 20.7245 -44.3887
ltibia 130.202
lfoot -1.38882 -14.9993
ltoes -30.5845
718
root 5.21165 1.52829 15.9244 -82.5133 6.30671 36.8328
lowerback -0.205442 3.12867 1.74649
upperback 0.74052 4.22108 -3.4113
thorax 1.2606 2.15621 -4.42336
lowerneck -32.439 17.0777 19.3272
upperneck 25.4971 19.2068 -10.7861
head 17.7581 8.21429 -2.80529
rclavicle -6.04305e-014 1.59028e-015
rhumerus -10.5094 29.2792 -43.0095
rradius 33.5045
rwrist 2.0689
rhand -5.49093 -21.841
rfingers 7.12502
rthumb 20.3217 -50.7978
lclavicle -6.04305e-014 1.59028e-015
lhumerus -55.7514 17.121 53.4772
lradius 88.9353
lwrist 20.1612
lhand 8.20511 -5.77586
lfingers 7.12502
lthumb 33.422 21.1343
rfemur -74.1321 -78.355 35.5105
rtibia 138.307
rfoot -23.446 -24.0748
rtoes 32.9287
lfemur -58.0081 20.7056 -44.446
ltibia 130.166
lfoot -1.07939 -15.0366
ltoes -29.9556
719
root 5.22342 1.52538 15.9183 -82.4923 6.37631 36.5734
lowerback -0.0856659 3.1638 1.61527
upperback 0.510329 4.25901 -3.23812
thorax 0.937006 2.16345 -4.18492
lowerneck -31.8185 16.9122 19.0024
upperneck 25.0696 19.2279 -10.8274
head 17.3912 8.2237 -2.79798
rclavicle 2.54444e-014 -2.46493e-014
rhumerus -10.9059 30.2438 -42.6134
rradius 33.6071
rwrist 2.41184
rhand -4.2165 -21.4295
rfingers 7.12502
rthumb 21.546 -50.251
lclavicle 2.54444e-014 -2.46493e-014
lhumerus -55.8627 17.0144 53.5824
lradius 88.9067
lwrist 21.3386
lhand 8.28825 -5.2014
lfingers 7.12502
lthumb 33.501 21.6917
rfemur -75.468 -78.2436 36.5988
rtibia 138.434
rfoot -23.1909 -23.8966
rtoes 32.6782
lfemur -58.1403 20.6273 -44.5616
ltibia 130.121
lfoot -0.751796 -15.0371
ltoes -29.328
720
root 5.23524 1.5235 15.9102 -82.395 6.4359 36.3177
lowerback -0.0816871 3.18855 1.50158
upperback 0.302965 4.28389 -3.09524
thorax 0.704309 2.16687 -3.98087
lowerneck -31.3054 16.8142 18.7869
upperneck 24.6379 19.2843 -10.9291
head 17.0771 8.24208 -2.81717
rclavicle 2.8625e-014 2.5842e-014
rhumerus -11.2367 31.0698 -42.2779
rradius 33.6868
rwrist 2.822
rhand -2.93785 -20.9906
rfingers 7.12502
rthumb 22.7736 -49.6663
lclavicle 2.8625e-014 2.5842e-014
lhumerus -55.8822 16.9719 53.6701
lradius 88.7958
lwrist 22.4803
lhand 8.36899 -4.65747
lfingers 7.12502
lthumb 33.5778 22.219
rfemur -77.3395 -77.8817 38.205
rtibia 138.575
rfoot -22.8102 -23.6752
rtoes 32.3115
lfemur -58.3609 20.4793 -44.7155
ltibia 130.074
lfoot -0.418214 -14.9978
ltoes -28.7232
721
root 5.24685 1.52237 15.9005 -82.2573 6.48046 36.0628
lowerback -0.184333 3.18565 1.41027
upperback 0.168835 4.27445 -3.00332
thorax 0.609445 2.15708 -3.83363
lowerneck -31.0249 16.844 18.7638
upperneck 24.2601 19.4096 -11.0968
head 16.8836 8.28076 -2.86038
rclavicle 6.36111e-015 -5.20816e-014
rhumerus -11.4293 31.6844 -42.0376
rradius 33.7281
rwrist 3.30775
rhand -1.65164 -20.5458
rfingers 7.12502
rthumb 24.0075 -49.0644
lclavicle 6.36111e-015 -5.20816e-014
lhumerus -55.7563 17.0815 53.7
lradius 88.6293
lwrist 23.5702
lhand 8.48529 -4.10341
lfingers 7.12502
lthumb 33.6883 22.749
rfemur -79.3554 -77.3271 39.957
rtibia 138.709
rfoot -22.3428 -23.4213
rtoes 31.8691
lfemur -58.6228 20.2993 -44.8724
ltibia 130.026
lfoot -0.0902547 -14.9359
ltoes -28.1763
722
root 5.25862 1.52191 15.8894 -82.0661 6.51923 35.8117
lowerback -0.366662 3.17743 1.33725
upperback 0.0522086 4.25858 -2.9292
thorax 0.579521 2.14552 -3.70968
lowerneck -30.8814 16.899 18.7362
upperneck 23.9382 19.5431 -11.2486
head 16.7436 8.31664 -2.88787
rclavicle 7.95139e-014 -1.35174e-014
rhumerus -11.571 32.2078 -41.8247
rradius 33.7466
rwrist 3.78945
rhand -0.356463 -20.15
rfingers 7.12502
rthumb 25.2489 -48.4994
lclavicle 7.95139e-014 -1.35174e-014
lhumerus -55.5768 17.2315 53.7301
lradius 88.4364
lwrist 24.6634
lhand 8.58083 -3.61206
lfingers 7.12502
lthumb 33.7791 23.2205
rfemur -81.4233 -76.5383 41.7448
rtibia 138.827
rfoot -21.7711 -23.1368
rtoes 31.4276
lfemur -58.9431 20.0683 -45.0612
ltibia 129.981
lfoot 0.198425 -14.8319
ltoes -27.794
723
root 5.27027 1.52109 15.8786 -81.8882 6.57363 35.5572
lowerback -0.55087 3.15878 1.25214
upperback -0.0334131 4.23018 -2.87371
thorax 0.582227 2.1288 -3.5973
lowerneck -30.8675 16.986 18.737
upperneck 23.6767 19.687 -11.3974
head 16.6635 8.35175 -2.90918
rclavicle -9.85972e-014 -1.82882e-014
rhumerus -11.6658 32.6561 -41.6407
rradius 33.7425
rwrist 4.23971
rhand 0.93262 -19.8294
rfingers 7.12502
rthumb 26.4834 -47.9987
lclavicle -9.85972e-014 -1.82882e-014
lhumerus -55.3513 17.4293 53.7547
lradius 88.2483
lwrist 25.7923
lhand 8.65437 -3.13049
lfingers 7.12502
lthumb 33.849 23.6867
rfemur -83.174 -75.7438 43.2096
rtibia 138.918
rfoot -21.2004 -22.8695
rtoes 31.046
lfemur -59.2479 19.8315 -45.2563
ltibia 129.931
lfoot 0.492574 -14.7205
ltoes -27.4424
724
root 5.28193 1.51928 15.8688 -81.721 6.68414 35.3018
lowerback -0.718054 3.133 1.11388
upperback -0.111854 4.19331 -2.8385
thorax 0.580057 2.10793 -3.47722
lowerneck -30.9058 17.0784 18.7379
upperneck 23.4373 19.827 -11.5413
head 16.603 8.38297 -2.92725
rclavicle 1.59028e-014 5.68524e-014
rhumerus -11.7455 33.0938 -41.4707
rradius 33.7244
rwrist 4.61471
rhand 2.20611 -19.6145
rfingers 7.12502
rthumb 27.7017 -47.5941
lclavicle 1.59028e-014 5.68524e-014
lhumerus -55.1251 17.6344 53.7979
lradius 88.0772
lwrist 26.966
lhand 8.66609 -2.67358
lfingers 7.12502
lthumb 33.8601 24.1411
rfemur -84.6894 -74.9928 44.3749
rtibia 139.002
rfoot -20.6573 -22.6241
rtoes 30.7446
lfemur -59.5433 19.5522 -45.5135
ltibia 129.869
lfoot 0.817083 -14.5914
ltoes -27.0401
725
root 5.29338 1.51645 15.8596 -81.5387 6.82761 35.0442
lowerback -0.876163 3.1091 0.931548
upperback -0.216235 4.1587 -2.79034
thorax 0.542487 2.08733 -3.32083
lowerneck -30.9269 17.1411 18.6844
upperneck 23.2364 19.9465 -11.6476
head 16.5421 8.40842 -2.92884
rclavicle -4.13472e-014 -1.11319e-014
rhumerus -11.8428 33.6053 -41.2649
rradius 33.7066
rwrist 4.865
rhand 3.46252 -19.5256
rfingers 7.12502
rthumb 28.9024 -47.3061
lclavicle -4.13472e-014 -1.11319e-014
lhumerus -54.9556 17.8228 53.8822
lradius 87.9515
lwrist 28.1839
lhand 8.62211 -2.23126
lfingers 7.12502
lthumb 33.8183 24.5927
rfemur -86.0984 -74.2123 45.3831
rtibia 139.086
rfoot -20.1008 -22.3857
rtoes 30.5921
lfemur -59.868 19.2307 -45.8143
ltibia 129.804
lfoot 1.18094 -14.4479
ltoes -26.5491
